<svg xmlns="http://www.w3.org/2000/svg" version="1.1" xmlns:xlink="http://www.w3.org/1999/xlink" width="1500" height="258" viewBox="0 0 1500 258"><svg xml:space="preserve" width="1500" height="258" data-version="2" data-id="lg_uovE2zwHcvnwEm1ARi" viewBox="0 0 812 258" x="0" y="0"><rect width="100%" height="100%" fill="transparent"></rect><path fill="#fff" d="m333.54 234.574-59.67.33q-1.63 0-1.63-1.63l.65-228.77q0-1.3 1.3-1.3l62.28-.33q18.53-.49 33.49 8.46 15.12 8.94 24.15 24.14 9.02 15.21 9.02 33.58v95.61q0 19.18-9.27 35.12-9.43 15.77-25.04 25.12-15.6 9.35-35.28 9.67m2.93-191.86-23.25.32-.33 150.89h20.65q12.36 0 20.81-8.61 8.46-8.62 8.46-20.65v-95.94q0-10.57-7.81-18.45-7.8-7.89-18.53-7.56"></path><rect width="130.89" height="232.2" x="-65.44" y="-116.1" fill="none" rx="0" ry="0" transform="translate(338.19 119.3)"></rect><path fill="#fff" d="M516.94 234.904H409.3q-1.3 0-1.3-1.63l.32-228.77q0-1.3 1.3-1.3h106.99q1.3 0 1.3 1.62v37.24q0 1.3-1.3 1.3h-68.29v52.03h68.29q1.3 0 1.3 1.3l.33 37.72q0 1.3-1.3 1.3h-68.62v58.21h68.62q1.3 0 1.3 1.63v38.05q0 1.3-1.3 1.3"></path><rect width="110.24" height="231.7" x="-55.12" y="-115.85" fill="none" rx="0" ry="0" transform="translate(463.62 119.55)"></rect><path fill="#fff" d="M597.58 234.904h-40.33q-1.46 0-1.62-1.63L509.61 4.504q-.32-1.3 1.3-1.3h37.72q1.3 0 1.63 1.3l27.32 152.51 26.66-152.51q.33-1.3 1.63-1.3h37.23q1.79 0 1.3 1.3l-45.2 228.77q-.16 1.63-1.62 1.63"></path><rect width="135.24" height="231.7" x="-67.62" y="-115.85" fill="none" rx="0" ry="0" transform="translate(577.56 119.55)"></rect><path fill="#fff" d="M645.04 234.904h-37.72q-1.3 0-1.3-1.3v-37.72q0-1.31 1.3-1.31h37.72q1.3 0 1.3 1.31v37.72q0 1.3-1.3 1.3"></path><rect width="40.32" height="40.33" x="-20.16" y="-20.16" fill="none" rx="0" ry="0" transform="translate(626.68 215.24)"></rect><path fill="#fff" d="M691.21 234.904h-37.72q-1.3 0-1.3-1.63l.65-228.77q0-1.3 1.3-1.3h40.65q1.3 0 2.27 1.3l30.41 43.9 30.24-43.9q.98-1.3 2.44-1.3h40.81q1.47 0 1.47 1.3l.65 228.77q0 1.63-1.3 1.63h-37.73q-1.3 0-1.3-1.63l-.32-169.91-34.96 50.73-34.64-50.73-.32 169.91q0 1.63-1.3 1.63"></path><rect width="150.89" height="231.7" x="-75.44" y="-115.85" fill="none" rx="0" ry="0" transform="translate(728.13 119.55)"></rect><path fill="#fff" d="M248.869 176.018c0-.313 0-.313.312-.625 4.994-13.108 8.115-27.465 8.427-42.447v-2.809c0-68.976-55.868-124.844-124.844-124.844S7.92 61.161 7.92 130.137c0 14.357 2.497 28.09 6.866 40.887 16.854 49.001 63.359 84.27 117.978 84.27 50.25 0 93.633-29.963 113.608-72.722 0-.312.312-.312.312-.624.624-1.873 1.56-3.746 2.185-5.93m-11.548-42.76v-3.433h-3.434v3.433h-7.802v-3.433h-3.433v3.433h-7.803v-3.433h-3.433v3.433h-9.052v9.052h-57.116v-14.67h26.842v-11.548c2.184-.624 4.057-2.184 4.993-4.37h55.868c.936 3.746 4.058 6.867 7.803 7.492.312 3.745.624 7.178.624 10.923v2.81h-4.057zM132.764 21.523c49.625 0 91.448 33.396 104.557 78.652-.312.312-.625.312-.937.624L214.85 79.888v-.937h-68.352V58.664h-16.854v20.287h-7.803V58.664h-16.854v20.287h-7.803V58.664H80.33v20.287H64.412c-.624-3.12-3.746-5.618-7.179-5.618-4.057 0-7.178 3.434-7.178 7.491 0 3.433 2.497 6.242 5.618 7.179v10.3h62.11c.624 3.12 3.745 5.617 7.178 5.617 4.058 0 7.179-3.433 7.179-7.49 0-4.058-3.121-7.491-7.179-7.491-3.433 0-6.242 2.497-7.178 5.618h-58.99V87.69c2.81-.624 4.682-2.809 5.307-5.305h98.002v7.49h41.51v-7.49h9.052l21.848 20.91c-.937 1.561-1.56 3.122-1.56 4.995h-55.244c-.312-3.746-3.434-6.867-7.179-6.867-4.057 0-7.178 3.433-7.178 7.49 0 3.434 2.497 6.243 5.618 7.18v8.114h-55.244c-.936-11.236-10.3-20.287-21.848-20.287s-20.91 9.051-21.847 20.287h-5.618v-7.802H53.176v-5.618H26.334v12.484h26.842v-3.433h7.803v13.42h-7.803v-3.433H26.334v12.485h26.842v-5.618h11.236v-9.051h5.618c.936 11.235 10.3 20.287 21.847 20.287s20.912-9.052 21.848-20.287h28.09v18.102h60.55v13.42h-70.537a10.612 10.612 0 0 0-10.612-9.987 10.612 10.612 0 0 0-10.612 9.988H68.781c-.624-3.121-3.745-5.618-7.178-5.618-4.058 0-7.179 3.433-7.179 7.49 0 4.058 3.121 7.49 7.179 7.49 3.433 0 6.242-2.496 7.178-5.617h42.135c1.249 4.682 5.306 7.803 10.3 7.803 4.994 0 9.051-3.434 10.3-7.803h21.847v6.242h7.803v-6.242h41.51v13.42H34.137c-6.554-14.044-9.987-29.338-9.987-45.88-.313-60.237 48.377-108.926 108.614-108.926m0 217.853c-42.447 0-79.276-24.345-97.066-59.925h91.76v19.975H144V179.45h6.866v19.975h16.854V179.45h6.867v19.975h16.854V179.45h11.235v9.051h9.052v3.433h3.433v-3.433h7.803v3.121c-19.975 28.714-52.747 47.753-90.2 47.753"></path></svg></svg>